<svg width="12" height="11" viewBox="0 0 12 11" fill="none" xmlns="http://www.w3.org/2000/svg">
<path d="M9.68348 1.58008H8.80009C8.75323 1.58008 8.7083 1.59858 8.67516 1.63151C8.64203 1.66445 8.62341 1.70911 8.62341 1.75569C8.62341 1.80226 8.64203 1.84693 8.67516 1.87986C8.7083 1.91279 8.75323 1.93129 8.80009 1.93129H9.06511V2.98494H8.19057C8.30743 2.83382 8.3711 2.64872 8.37177 2.45812C8.37176 2.26483 8.30759 2.07695 8.18921 1.92361C8.07083 1.77027 7.90485 1.66004 7.71702 1.61001C7.52918 1.55999 7.32999 1.57296 7.15033 1.64693C6.97067 1.72089 6.82059 1.85171 6.72335 2.0191C6.71161 2.03907 6.70395 2.06115 6.70082 2.08407C6.69769 2.10699 6.69915 2.1303 6.70511 2.15266C6.71108 2.17502 6.72142 2.19598 6.73556 2.21436C6.7497 2.23273 6.76736 2.24814 6.78751 2.25971C6.80766 2.27128 6.82992 2.27877 6.85299 2.28177C6.87607 2.28476 6.89951 2.28319 6.92198 2.27715C6.94444 2.27111 6.96548 2.26072 6.98389 2.24657C7.0023 2.23242 7.01772 2.21479 7.02925 2.1947C7.07577 2.11461 7.14268 2.04809 7.22325 2.00184C7.30383 1.95558 7.39523 1.93123 7.48828 1.93122C7.58133 1.93121 7.67274 1.95554 7.75333 2.00178C7.83391 2.04801 7.90084 2.11452 7.94737 2.19461C7.9939 2.27469 8.0184 2.36555 8.01841 2.45803C8.01842 2.55052 7.99393 2.64137 7.94742 2.72147C7.9009 2.80157 7.83399 2.86808 7.75341 2.91433C7.67283 2.96058 7.58143 2.98493 7.48838 2.98494C7.44152 2.98494 7.39658 3.00344 7.36345 3.03637C7.33032 3.06931 7.3117 3.11397 7.3117 3.16055C7.3117 3.20712 7.33032 3.25179 7.36345 3.28472C7.39658 3.31765 7.44152 3.33615 7.48838 3.33615C7.58141 3.33617 7.67281 3.36053 7.75337 3.40678C7.83393 3.45303 7.90083 3.51954 7.94734 3.59963C7.99384 3.67972 8.01832 3.77057 8.01831 3.86304C8.0183 3.95551 7.9938 4.04635 7.94727 4.12643C7.90075 4.20651 7.83383 4.27301 7.75326 4.31924C7.67268 4.36547 7.58129 4.38981 7.48825 4.3898C7.39521 4.3898 7.30382 4.36545 7.22325 4.31921C7.14268 4.27298 7.07577 4.20647 7.02925 4.12639C7.00575 4.08622 6.96718 4.05695 6.922 4.04499C6.87682 4.03304 6.82871 4.03938 6.78823 4.06262C6.74774 4.08586 6.71818 4.12411 6.70601 4.16898C6.69385 4.21385 6.70009 4.26169 6.72335 4.302C6.82058 4.46939 6.97067 4.60021 7.15033 4.67417C7.32999 4.74814 7.52918 4.76112 7.71702 4.71109C7.90485 4.66106 8.07083 4.55083 8.18921 4.39749C8.3076 4.24415 8.37176 4.05626 8.37177 3.86298C8.3711 3.67238 8.30743 3.48728 8.19057 3.33615H9.06511V4.56541C9.06511 4.61198 9.08372 4.65665 9.11686 4.68958C9.14999 4.72251 9.19493 4.74102 9.24179 4.74102C9.28864 4.74102 9.33358 4.72251 9.36672 4.68958C9.39985 4.65665 9.41846 4.61198 9.41846 4.56541V1.93129H9.68348C9.73034 1.93129 9.77528 1.91279 9.80841 1.87986C9.84154 1.84693 9.86016 1.80226 9.86016 1.75569C9.86016 1.70911 9.84154 1.66445 9.80841 1.63151C9.77528 1.59858 9.73034 1.58008 9.68348 1.58008Z" fill="black"/>
<path d="M3.98496 6.92617L3.78171 6.2839H2.7597L2.55645 6.92617H1.91602L2.90543 4.2168H3.63215L4.62539 6.92617H3.98496ZM3.63982 5.80403L3.43656 5.17652C3.42378 5.13469 3.40652 5.08116 3.38479 5.01595C3.36434 4.94951 3.34325 4.88245 3.32152 4.81478C3.30106 4.74588 3.28445 4.6862 3.27166 4.63575C3.25888 4.6862 3.24098 4.74895 3.21797 4.82401C3.19624 4.89783 3.17515 4.96797 3.1547 5.03441C3.13424 5.10085 3.11954 5.14822 3.1106 5.17652L2.90926 5.80403H3.63982Z" fill="black"/>
<path d="M10.5365 0H4.51563V1.88151H5.26823V0.752604H10.5365C10.7622 0.752604 10.9128 0.903125 10.9128 1.12891V5.26823C10.9128 5.49401 10.7622 5.64453 10.5365 5.64453H5.64453V8.27865H3.65013L2.25781 9.36992V8.27865H1.12891C0.903125 8.27865 0.752604 8.12813 0.752604 7.90235V3.76302C0.752604 3.53724 0.903125 3.38672 1.12891 3.38672H6.02083V2.63412H1.12891C0.489193 2.63412 0 3.12331 0 3.76302V7.90235C0 8.54206 0.489193 9.03125 1.12891 9.03125H1.50521V10.9504L3.87591 9.03125H6.39714V6.39714H10.5365C11.1762 6.39714 11.6654 5.90794 11.6654 5.26823V1.12891C11.6654 0.489193 11.1762 0 10.5365 0Z" fill="black"/>
</svg>
